<svg width="16" height="16" viewBox="0 0 16 16" fill="none" xmlns="http://www.w3.org/2000/svg">
<g clip-path="url(#clip0_5001_10916)">
<path d="M7.99998 4.66671C8.92045 4.66671 9.66665 3.92052 9.66665 3.00004C9.66665 2.07957 8.92045 1.33337 7.99998 1.33337C7.07951 1.33337 6.33331 2.07957 6.33331 3.00004C6.33331 3.92052 7.07951 4.66671 7.99998 4.66671Z" stroke="#F7F7F8" stroke-width="1.33333" stroke-linecap="round" stroke-linejoin="round"/>
<path d="M6.79995 4.19995L4.19995 6.79995" stroke="#F7F7F8" stroke-width="1.33333" stroke-linecap="round" stroke-linejoin="round"/>
<path d="M2.99998 9.66671C3.92045 9.66671 4.66665 8.92052 4.66665 8.00004C4.66665 7.07957 3.92045 6.33337 2.99998 6.33337C2.07951 6.33337 1.33331 7.07957 1.33331 8.00004C1.33331 8.92052 2.07951 9.66671 2.99998 9.66671Z" stroke="#F7F7F8" stroke-width="1.33333" stroke-linecap="round" stroke-linejoin="round"/>
<path d="M4.66663 8H11.3333" stroke="#F7F7F8" stroke-width="1.33333" stroke-linecap="round" stroke-linejoin="round"/>
<path d="M13 9.66671C13.9205 9.66671 14.6666 8.92052 14.6666 8.00004C14.6666 7.07957 13.9205 6.33337 13 6.33337C12.0795 6.33337 11.3333 7.07957 11.3333 8.00004C11.3333 8.92052 12.0795 9.66671 13 9.66671Z" stroke="#F7F7F8" stroke-width="1.33333" stroke-linecap="round" stroke-linejoin="round"/>
<path d="M9.19995 11.8L11.8 9.19995" stroke="#F7F7F8" stroke-width="1.33333" stroke-linecap="round" stroke-linejoin="round"/>
<path d="M7.99998 14.6667C8.92045 14.6667 9.66665 13.9205 9.66665 13C9.66665 12.0796 8.92045 11.3334 7.99998 11.3334C7.07951 11.3334 6.33331 12.0796 6.33331 13C6.33331 13.9205 7.07951 14.6667 7.99998 14.6667Z" stroke="#F7F7F8" stroke-width="1.33333" stroke-linecap="round" stroke-linejoin="round"/>
</g>
<defs>
<clipPath id="clip0_5001_10916">
<rect width="16" height="16" fill="white"/>
</clipPath>
</defs>
</svg>
